Coordinates
version=1
nRows=11
nColumns=46
inDegrees=yes

Units are S.I. units (second, meters, Newtons, ...)
Angles are in degrees.

endheader
time	pelvis_tilt	pelvis_list	pelvis_rotation	pelvis_tx	pelvis_ty	pelvis_tz	bb_angle	bb_tx	bb_ty	bb_tz	hip_flexion_r	hip_adduction_r	hip_rotation_r	knee_angle_r	knee_angle_r_beta	ankle_angle_r	subtalar_angle_r	mtp_angle_r	crank_angle_r	hip_flexion_l	hip_adduction_l	hip_rotation_l	knee_angle_l	knee_angle_l_beta	ankle_angle_l	subtalar_angle_l	mtp_angle_l	crank_angle_l	lumbar_extension	lumbar_bending	lumbar_rotation	arm_flex_r	arm_add_r	arm_rot_r	elbow_flex_r	pro_sup_r	wrist_flex_r	wrist_dev_r	arm_flex_l	arm_add_l	arm_rot_l	elbow_flex_l	pro_sup_l	wrist_flex_l	wrist_dev_l
      7.50500000	    -12.10492951	     -2.59055716	     -5.14049232	      0.20042014	      1.05586761	     -0.24115909	      0.00000000	      0.50000000	      0.00000000	      0.25000000	     61.35066512	      0.91787002	      2.64606238	     63.86683594	      1.11468657	     19.14358399	      4.64392420	      0.00000000	      0.00000000	     51.20715203	     -7.82813777	      4.65114742	     89.59377713	      1.56370640	     -5.65874709	    -12.19207138	      0.00000000	      0.00000000	    -71.18661711	      4.58449020	      1.18274858	     89.32155297	    -23.07735674	     33.74692477	     75.11886284	     38.62250817	      0.00000000	      0.00000000	     68.96553171	    -42.61517183	     11.22230978	     82.92118641	     46.64492990	      0.00000000	      0.00000000
      7.51000000	    -11.92293894	     -1.93577612	     -4.90729485	      0.20026555	      1.05487800	     -0.24014985	      0.00000000	      0.50000000	      0.00000000	      0.25000000	     59.95742914	      0.33453980	      2.92675458	     61.67399106	      1.07641421	     18.08100930	      4.81332662	      0.00000000	      0.00000000	     52.19574677	     -7.24182936	      4.53158172	     91.92014335	      1.60430915	     -4.89379076	    -12.06707802	      0.00000000	      0.00000000	    -71.13435651	      4.23521822	      0.32783199	     89.29241762	    -23.11050452	     33.74522092	     75.03162828	     38.62308871	      0.00000000	      0.00000000	     69.18574547	    -42.62437880	     11.06734189	     82.92920445	     46.63839911	      0.00000000	      0.00000000
      7.51500000	    -11.62920504	     -1.50020366	     -4.64103282	      0.20003138	      1.05408962	     -0.23878592	      0.00000000	      0.50000000	      0.00000000	      0.25000000	     58.35125649	     -0.02059623	      3.10405433	     59.43965695	      1.03741772	     16.88942978	      4.31243603	      0.00000000	      0.00000000	     53.12080422	     -6.81887189	      4.75617491	     94.25321049	      1.64502885	     -3.74203169	    -11.06516215	      0.00000000	      0.00000000	    -71.23873416	      3.90075480	     -0.59274728	     89.29315313	    -22.87302925	     34.00396222	     74.62104520	     38.58250808	      0.00000000	      0.00000000	     69.60825104	    -42.96428644	     10.85340654	     82.96277862	     46.65769643	      0.00000000	      0.00000000
      7.52000000	    -11.59052382	     -0.80311449	     -4.31634193	      0.19988805	      1.05309122	     -0.23764544	      0.00000000	      0.50000000	      0.00000000	      0.25000000	     57.02944471	     -0.68919099	      3.34424196	     57.21557319	      0.99860014	     15.72883488	      4.49763410	      0.00000000	      0.00000000	     54.32799817	     -6.20174911	      4.59257812	     96.41420869	      1.68274539	     -3.08274373	    -11.10505571	      0.00000000	      0.00000000	    -71.05324400	      3.58115795	     -1.38163813	     89.24053215	    -22.93689813	     33.92375873	     74.52743869	     38.57358324	      0.00000000	      0.00000000	     69.84232875	    -42.97246915	     10.80834070	     83.00726166	     46.66667625	      0.00000000	      0.00000000
      7.52500000	    -11.52855716	     -0.17843190	     -3.95227148	      0.19965751	      1.05185839	     -0.23641353	      0.00000000	      0.50000000	      0.00000000	      0.25000000	     55.68813867	     -1.26046708	      3.62806822	     55.17661642	      0.96301363	     14.63367690	      4.61405265	      0.00000000	      0.00000000	     55.60493956	     -5.58545598	      4.60313361	     98.59010865	      1.72072201	     -2.57463840	    -11.10377922	      0.00000000	      0.00000000	    -70.91792620	      3.17441019	     -2.28414898	     89.17752297	    -23.02679620	     33.85449628	     74.44089329	     38.56896683	      0.00000000	      0.00000000	     70.09016419	    -42.93063950	     10.80111847	     83.04665642	     46.67398233	      0.00000000	      0.00000000
      7.53000000	    -11.51732338	      0.18057485	     -3.52307139	      0.19920446	      1.05074715	     -0.23498313	      0.00000000	      0.50000000	      0.00000000	      0.25000000	     54.29283587	     -1.64330032	      3.57508790	     52.93509092	      0.92389163	     12.81147917	      3.37941919	      0.00000000	      0.00000000	     57.04565555	     -5.26356250	      4.84558240	    100.74392792	      1.75831324	     -1.65326076	    -10.12924497	      0.00000000	      0.00000000	    -70.79727360	      2.94875662	     -3.08830745	     89.16661670	    -22.73034105	     33.94654659	     73.82242696	     38.51584725	      0.00000000	      0.00000000	     70.86542075	    -43.38549447	     11.08354102	     83.15316640	     46.74528557	      0.00000000	      0.00000000
      7.53500000	    -11.53365428	      0.63622731	     -2.97028397	      0.19874275	      1.04973266	     -0.23376450	      0.00000000	      0.50000000	      0.00000000	      0.25000000	     52.90346709	     -2.20374818	      3.61722135	     50.78078999	      0.88629198	     11.42019863	      2.88439913	      0.00000000	      0.00000000	     58.55323244	     -4.70971413	      5.09140604	    102.73470164	      1.79305880	     -1.18650492	     -9.67818119	      0.00000000	      0.00000000	    -70.61620157	      2.73398762	     -3.94455251	     89.10063988	    -22.56045563	     33.78530910	     73.42375985	     38.50743168	      0.00000000	      0.00000000	     71.46613975	    -43.64104692	     11.42766513	     83.23243718	     46.81395595	      0.00000000	      0.00000000
      7.54000000	    -11.57299708	      1.06420935	     -2.51826379	      0.19840275	      1.04859206	     -0.23245553	      0.00000000	      0.50000000	      0.00000000	      0.25000000	     51.54226437	     -2.64776182	      3.72162125	     48.71029255	      0.85015498	      9.97313993	      2.24014693	      0.00000000	      0.00000000	     60.10918604	     -4.31720492	      5.19718168	    104.67091763	      1.82685214	     -0.67711271	     -9.29983759	      0.00000000	      0.00000000	    -70.37635322	      2.36882324	     -4.77134068	     88.99257376	    -22.37137319	     33.59289438	     72.83368703	     38.53819745	      0.00000000	      0.00000000	     72.17163642	    -43.97273534	     12.11412464	     83.26242097	     46.92824203	      0.00000000	      0.00000000
      7.54500000	    -11.73524686	      1.68370021	     -2.06402288	      0.19821483	      1.04744454	     -0.23151611	      0.00000000	      0.50000000	      0.00000000	      0.25000000	     50.33019169	     -3.32348282	      3.92876577	     46.75374924	      0.81600686	      9.10810356	      2.33836220	      0.00000000	      0.00000000	     61.79003209	     -3.74352528	      5.11945204	    106.44348091	      1.85778921	     -0.46761847	     -9.26247384	      0.00000000	      0.00000000	    -70.04090831	      2.01617815	     -5.61878273	     88.83348463	    -22.46760657	     33.42912876	     72.83312689	     38.56139285	      0.00000000	      0.00000000	     72.39596876	    -43.85183237	     12.11545086	     83.32306460	     46.93562413	      0.00000000	      0.00000000
      7.55000000	    -11.91542936	      1.82353244	     -1.51631847	      0.19790538	      1.04639485	     -0.23044236	      0.00000000	      0.50000000	      0.00000000	      0.25000000	     49.04038913	     -3.66947148	      3.63887938	     44.72146141	      0.78053675	      7.33210999	      1.40577269	      0.00000000	      0.00000000	     63.63169799	     -3.47133095	      5.54993188	    108.22472175	      1.88887773	     -0.16154412	     -8.60139675	      0.00000000	      0.00000000	    -69.79163935	      1.94900454	     -6.18089626	     88.72667452	    -22.29730750	     33.39838533	     72.44112895	     38.61246529	      0.00000000	      0.00000000	     73.17846871	    -44.03826930	     12.38151777	     83.51637179	     47.00263803	      0.00000000	      0.00000000
      7.55500000	    -12.13980556	      2.12230769	     -1.08926963	      0.19777479	      1.04534340	     -0.22923132	      0.00000000	      0.50000000	      0.00000000	      0.25000000	     47.85452847	     -4.02208871	      3.66147687	     42.84382292	      0.74776577	      5.97783712	      0.89647330	      0.00000000	      0.00000000	     65.47708301	     -3.17910585	      5.77699296	    109.85741677	      1.91737363	      0.09651263	     -8.05788273	      0.00000000	      0.00000000	    -69.42615494	      1.67358803	     -6.82743469	     88.55924490	    -22.12620496	     33.31973221	     71.92002111	     39.02652273	      0.00000000	      0.00000000	     73.74913445	    -44.24899975	     12.98112186	     83.47629604	     47.01454253	      0.00000000	      0.00000000
